# xmcd
#
# Track frame offsets:
#	150
#	22565
#	49108
#	119846
#	157556
#	175400
#	195083
#	196530
#	224401
#	266482
#	287619
#
# Disc length: 4114 seconds
#
# Revision: 1
# Processed by: cddbd v1.5.2PL0 Copyright (c) Steve Scherf et al.
# Submitted via: audiograbber 1.83.01
#
DISCID=8810100b
DTITLE=Grateful Dead - 69-02-12 Fillmore East, New York NY
DYEAR=1900
DGENRE=
TTITLE0=Dark Star
TTITLE1=St Stephen
TTITLE2=William Tell > The Eleven
TTITLE3=Death Don't Have No Mercy
TTITLE4=Alligator
TTITLE5=Drums
TTITLE6=Drummers' Chant
TTITLE7=Alligator Jam
TTITLE8=Caution
TTITLE9=Feedback
TTITLE10=We Bid You Goodnight
EXTD=
EXTT0=
EXTT1=
EXTT2=
EXTT3=
EXTT4=
EXTT5=
EXTT6=
EXTT7=
EXTT8=
EXTT9=
EXTT10=
PLAYORDER=
